<svg width="27" height="27" viewBox="0 0 27 27" fill="none" xmlns="http://www.w3.org/2000/svg">
<circle cx="13.5" cy="13.5" r="13.5" fill="#323B91"/>
<path fill-rule="evenodd" clip-rule="evenodd" d="M19.4573 7.89947C20.1039 10.3662 18.7219 12.8976 16.1253 14.0029C20.0343 15.0502 22.7063 18.2117 22.7117 21.796V23.154C22.7117 23.4039 22.4806 23.6066 22.1956 23.6066C21.9105 23.6066 21.6794 23.4039 21.6794 23.154V21.796C21.6794 17.7962 17.9818 14.5537 13.4206 14.5537C8.85935 14.5537 5.16175 17.7962 5.16175 21.796V23.154C5.16175 23.4039 4.93065 23.6066 4.64557 23.6066C4.36049 23.6066 4.12939 23.4039 4.12939 23.154V21.796C4.13485 18.2117 6.80685 15.0502 10.7158 14.0029C8.11922 12.8976 6.73728 10.3662 7.38389 7.89947C8.0305 5.43273 10.5343 3.68457 13.4206 3.68457C16.3069 3.68457 18.8106 5.43273 19.4573 7.89947ZM13.4206 4.59542C10.5698 4.59542 8.25881 6.62199 8.25881 9.12189C8.26199 11.6206 10.5711 13.6456 13.4206 13.6484C16.2713 13.6484 18.5823 11.6218 18.5823 9.12189C18.5823 6.62199 16.2713 4.59542 13.4206 4.59542Z" fill="white"/>
</svg>
